<?xml version="1.0" encoding="UTF-8" standalone="no"?>
<!-- Generator: Adobe Illustrator 17.1.0, SVG Export Plug-In . SVG Version: 6.00 Build 0)  -->

<svg
   xmlns:dc="http://purl.org/dc/elements/1.1/"
   xmlns:cc="http://creativecommons.org/ns#"
   xmlns:rdf="http://www.w3.org/1999/02/22-rdf-syntax-ns#"
   xmlns:svg="http://www.w3.org/2000/svg"
   xmlns="http://www.w3.org/2000/svg"
   xmlns:sodipodi="http://sodipodi.sourceforge.net/DTD/sodipodi-0.dtd"
   xmlns:inkscape="http://www.inkscape.org/namespaces/inkscape"
   version="1.1"
   x="0px"
   y="0px"
   viewBox="0 0 225 126"
   enable-background="new 0 0 225 126"
   xml:space="preserve"
   id="svg2"
   inkscape:version="0.91 r13725"
   sodipodi:docname="hero.svg"><metadata
     id="metadata31"><rdf:RDF><cc:Work
         rdf:about=""><dc:format>image/svg+xml</dc:format><dc:type
           rdf:resource="http://purl.org/dc/dcmitype/StillImage" /></cc:Work></rdf:RDF></metadata><defs
     id="defs29" /><sodipodi:namedview
     pagecolor="#ffffff"
     bordercolor="#666666"
     borderopacity="1"
     objecttolerance="10"
     gridtolerance="10"
     guidetolerance="10"
     inkscape:pageopacity="0"
     inkscape:pageshadow="2"
     inkscape:window-width="1871"
     inkscape:window-height="1062"
     id="namedview27"
     showgrid="true"
     showguides="true"
     inkscape:guide-bbox="true"
     inkscape:zoom="3.7460946"
     inkscape:cx="107.80752"
     inkscape:cy="53.204139"
     inkscape:window-x="1969"
     inkscape:window-y="18"
     inkscape:window-maximized="1"
     inkscape:current-layer="art-5"><inkscape:grid
       type="xygrid"
       id="grid4219" /></sodipodi:namedview><g
     id="background"
     display="none"><rect
       display="inline"
       fill="#B0BEC5"
       width="225"
       height="126"
       id="rect5" /></g><g
     id="label" /><g
     id="art"><g
       id="ic_x5F_add_x0D_" /><g
       style="display:none"
       id="background-3"
       display="none"
       transform="translate(3.2088922,7.051175)"><rect
         style="display:inline;fill:#b0bec5"
         y="0"
         x="0"
         display="inline"
         width="225"
         height="126"
         id="rect4158" /></g><g
       id="label-6"
       transform="translate(3.2088922,7.051175)" /><g
       id="art-7"
       transform="translate(3.2088922,46.423429)"><g
         id="ic_x5F_add_x0D_-5" /><g
         id="g4168"
         transform="translate(-1.456572,-70.849894)"><g
           display="none"
           id="background-36"
           style="display:none"><rect
             id="rect4152"
             height="126"
             width="225"
             display="inline"
             x="0"
             y="0"
             style="display:inline;fill:#b0bec5" /></g><g
           id="label-7" /><g
           id="art-5"><g
             id="ic_x5F_add_x0D_-3" /><path
             style="fill:#75c9e1"
             inkscape:connector-curvature="0"
             d="m 58.000162,53.843814 -31.723349,0 3.163186,5.077348 28.380953,0 c 3.466321,0 6.730114,1.390908 9.19018,3.916512 2.450198,2.515543 3.799641,5.832929 3.799641,9.340998 0,3.447142 -1.291054,6.551376 -3.733258,8.976935 -2.325894,2.310101 -5.567495,3.828976 -9.132923,4.280579 l -3.47356,0 -9.579822,-0.07653 2.765081,4.788218 4.199718,0 0.227825,0.365664 0.03338,0 12.425674,20.978752 0.07973,0.0797 c 0.539046,0.53847 1.214333,0.80033 2.064694,0.80033 1.455133,0 2.684415,-1.27046 2.684415,-2.77411 0,-0.59649 -0.19454,-0.86662 -0.429694,-1.13441 -0.09562,-0.10888 -0.214567,-0.24437 -0.394341,-0.55051 L 58.323421,90.510804 c 4.753805,-0.08246 9.199207,-1.97678 12.548093,-5.355378 3.422979,-3.453249 5.308085,-8.061976 5.308085,-12.976754 0,-10.109934 -8.155252,-18.334858 -18.179437,-18.334858 z"
             id="path4160"
             sodipodi:nodetypes="sccsssscccccccccssccccss" /><polygon
             id="polygon11"
             points="66,64.8 60.6,56.8 55.3,64.8 49.2,55.6 50.8,54.4 55.3,61.2 60.6,53.2 66,61.2 71.3,53.2 77.4,62.4 75.8,63.6 71.3,56.8 "
             transform="translate(56.594482,22.63987)" /><circle
             style="fill:#000000;fill-opacity:1;stroke:#000000;stroke-width:1.55125272;stroke-miterlimit:4;stroke-dasharray:none;stroke-opacity:1"
             id="path4163"
             cx="155.90669"
             cy="81.63987"
             r="3.3722885" /></g><g
           id="Guides-5" /></g></g><g
       id="Guides-3"
       transform="translate(3.2088922,7.051175)" /></g><g
     id="Guides" /></svg>